<svg width="1596" height="428" viewBox="0 0 1596 428" fill="none" xmlns="http://www.w3.org/2000/svg">
<path d="M467.375 108.363C527.434 108.363 576.75 157.191 576.75 217.738C576.75 277.797 527.434 327.113 467.375 327.113C406.828 327.113 358 277.797 358 217.738C358 157.191 406.828 108.363 467.375 108.363ZM467.375 295.375C510.344 295.375 545.5 260.219 545.5 217.25C545.5 174.77 510.344 139.613 467.375 139.613C423.918 139.613 389.25 174.281 389.25 217.25C389.25 260.707 423.918 295.375 467.375 295.375ZM789.25 123.988V311.488C789.25 317.836 784.855 323.695 778.508 326.137C777.043 326.625 775.09 326.625 773.625 326.625C768.742 326.625 764.348 324.672 761.418 321.254L633 166.957V311C633 319.789 625.676 326.625 617.375 326.625C608.586 326.625 601.75 319.789 601.75 311V123.5C601.75 117.152 605.656 111.293 612.004 108.852C617.863 106.898 624.699 108.852 629.094 113.734L758 268.031V123.5C758 115.199 764.836 107.875 773.625 107.875C781.926 107.875 789.25 115.199 789.25 123.988ZM939.738 210.902C957.805 221.645 970.5 241.664 970.5 264.125C970.5 298.793 942.18 326.625 908 326.625H829.875C821.086 326.625 814.25 319.789 814.25 311V123.5C814.25 115.199 821.086 107.875 829.875 107.875H892.375C926.555 107.875 954.875 136.195 954.875 170.375C954.875 186 949.016 200.16 939.738 210.902ZM845.5 139.613V202.113H892.375C909.465 202.113 923.625 187.953 923.625 170.863C923.625 153.285 909.465 139.613 892.375 139.613H845.5ZM908 295.375C925.09 295.375 939.25 281.703 939.25 264.125C939.25 247.035 925.09 232.875 908 232.875H845.5V295.375H908ZM1151.75 311C1151.75 319.789 1144.43 326.625 1136.12 326.625H1011.12C1002.34 326.625 995.5 319.789 995.5 311V123.5C995.5 115.199 1002.34 108.363 1011.12 108.363H1136.12C1144.43 108.363 1151.75 115.199 1151.75 123.988C1151.75 132.289 1144.43 139.613 1136.12 139.613H1026.75V202.113H1104.88C1113.18 202.113 1120.5 208.949 1120.5 217.25C1120.5 226.039 1113.18 233.363 1104.88 233.363H1026.75V295.863H1136.12C1144.43 295.375 1151.75 302.699 1151.75 311ZM1364.25 123.988V311.488C1364.25 317.836 1359.86 323.695 1353.51 326.137C1352.04 326.625 1350.09 326.625 1348.62 326.625C1343.74 326.625 1339.35 324.672 1336.42 321.254L1208 166.957V311C1208 319.789 1200.68 326.625 1192.38 326.625C1183.59 326.625 1176.75 319.789 1176.75 311V123.5C1176.75 117.152 1180.66 111.293 1187 108.852C1192.86 106.898 1199.7 108.852 1204.09 113.734L1333 268.031V123.5C1333 115.199 1339.84 107.875 1348.62 107.875C1356.93 107.875 1364.25 115.199 1364.25 123.988ZM1576.75 123.988C1576.75 132.289 1569.43 139.613 1561.12 139.613H1498.62V311.488C1498.62 319.789 1491.3 326.625 1483 326.625C1474.21 326.625 1467.38 319.789 1467.38 311.488V139.613H1404.88C1396.09 139.613 1389.25 132.289 1389.25 123.988C1389.25 115.199 1396.09 108.363 1404.88 108.363H1561.12C1569.43 108.363 1576.75 115.199 1576.75 123.988Z" fill="#0F8BFD"/>
<path d="M346 323L209.278 403.791C198.618 410.089 185.378 410.096 174.712 403.807L35.7317 321.865C25.3636 315.752 19 304.613 19 292.577V130.916C19 118.616 25.6432 107.275 36.3718 101.26L175.309 23.3585C185.672 17.548 198.316 17.5684 208.661 23.4123L346 101" stroke="#0F8BFD" stroke-width="38" stroke-linecap="round"/>
<path d="M286.16 148.562C288.772 146.969 288.701 143.153 286.031 141.658L193.954 90.0945C192.74 89.4145 191.26 89.4145 190.046 90.0945L97.9686 141.658C95.2991 143.153 95.228 146.969 97.84 148.562L189.917 204.729C191.196 205.51 192.804 205.51 194.083 204.729L286.16 148.562Z" fill="#EEE500"/>
<path d="M184.083 212.831C185.274 213.557 186 214.851 186 216.245V320.996C186 324.092 182.634 326.014 179.967 324.441L87.9674 270.161C86.7482 269.441 86 268.131 86 266.716V160.125C86 157.003 89.4175 155.085 92.083 156.711L184.083 212.831Z" fill="#873EFE"/>
<path d="M199.917 212.831C198.726 213.557 198 214.851 198 216.245V320.996C198 324.092 201.366 326.014 204.033 324.441L296.033 270.161C297.252 269.441 298 268.131 298 266.716V160.125C298 157.003 294.582 155.085 291.917 156.711L199.917 212.831Z" fill="#0BD18A"/>
</svg>
