<svg width="1223" height="595" viewBox="0 0 1223 595" fill="none" xmlns="http://www.w3.org/2000/svg">
<path d="M467.375 108.363C527.434 108.363 576.75 157.191 576.75 217.738C576.75 277.797 527.434 327.113 467.375 327.113C406.828 327.113 358 277.797 358 217.738C358 157.191 406.828 108.363 467.375 108.363ZM467.375 295.375C510.344 295.375 545.5 260.219 545.5 217.25C545.5 174.77 510.344 139.613 467.375 139.613C423.918 139.613 389.25 174.281 389.25 217.25C389.25 260.707 423.918 295.375 467.375 295.375ZM789.25 123.988V311.488C789.25 317.836 784.855 323.695 778.508 326.137C777.043 326.625 775.09 326.625 773.625 326.625C768.742 326.625 764.348 324.672 761.418 321.254L633 166.957V311C633 319.789 625.676 326.625 617.375 326.625C608.586 326.625 601.75 319.789 601.75 311V123.5C601.75 117.152 605.656 111.293 612.004 108.852C617.863 106.898 624.699 108.852 629.094 113.734L758 268.031V123.5C758 115.199 764.836 107.875 773.625 107.875C781.926 107.875 789.25 115.199 789.25 123.988Z" fill="#0F8BFD"/>
<path d="M577.488 463.902C595.555 474.645 608.25 494.664 608.25 517.125C608.25 551.793 579.93 579.625 545.75 579.625H467.625C458.836 579.625 452 572.789 452 564V376.5C452 368.199 458.836 360.875 467.625 360.875H530.125C564.305 360.875 592.625 389.195 592.625 423.375C592.625 439 586.766 453.16 577.488 463.902ZM483.25 392.613V455.113H530.125C547.215 455.113 561.375 440.953 561.375 423.863C561.375 406.285 547.215 392.613 530.125 392.613H483.25ZM545.75 548.375C562.84 548.375 577 534.703 577 517.125C577 500.035 562.84 485.875 545.75 485.875H483.25V548.375H545.75ZM789.5 564C789.5 572.789 782.176 579.625 773.875 579.625H648.875C640.086 579.625 633.25 572.789 633.25 564V376.5C633.25 368.199 640.086 361.363 648.875 361.363H773.875C782.176 361.363 789.5 368.199 789.5 376.988C789.5 385.289 782.176 392.613 773.875 392.613H664.5V455.113H742.625C750.926 455.113 758.25 461.949 758.25 470.25C758.25 479.039 750.926 486.363 742.625 486.363H664.5V548.863H773.875C782.176 548.375 789.5 555.699 789.5 564ZM1002 376.988V564.488C1002 570.836 997.605 576.695 991.258 579.137C989.793 579.625 987.84 579.625 986.375 579.625C981.492 579.625 977.098 577.672 974.168 574.254L845.75 419.957V564C845.75 572.789 838.426 579.625 830.125 579.625C821.336 579.625 814.5 572.789 814.5 564V376.5C814.5 370.152 818.406 364.293 824.754 361.852C830.613 359.898 837.449 361.852 841.844 366.734L970.75 521.031V376.5C970.75 368.199 977.586 360.875 986.375 360.875C994.676 360.875 1002 368.199 1002 376.988ZM1214.5 376.988C1214.5 385.289 1207.18 392.613 1198.88 392.613H1136.38V564.488C1136.38 572.789 1129.05 579.625 1120.75 579.625C1111.96 579.625 1105.12 572.789 1105.12 564.488V392.613H1042.62C1033.84 392.613 1027 385.289 1027 376.988C1027 368.199 1033.84 361.363 1042.62 361.363H1198.88C1207.18 361.363 1214.5 368.199 1214.5 376.988Z" fill="#0F8BFD"/>
<path d="M346 323L209.278 403.791C198.618 410.089 185.378 410.096 174.712 403.807L35.7317 321.865C25.3636 315.752 19 304.613 19 292.577V130.916C19 118.616 25.6432 107.275 36.3718 101.26L175.309 23.3585C185.672 17.548 198.316 17.5684 208.661 23.4123L346 101" stroke="#0F8BFD" stroke-width="38" stroke-linecap="round"/>
<path d="M286.16 148.562C288.772 146.969 288.701 143.153 286.031 141.658L193.954 90.0945C192.74 89.4145 191.26 89.4145 190.046 90.0945L97.9686 141.658C95.2991 143.153 95.228 146.969 97.84 148.562L189.917 204.729C191.196 205.51 192.804 205.51 194.083 204.729L286.16 148.562Z" fill="#EEE500"/>
<path d="M184.083 212.831C185.274 213.557 186 214.851 186 216.245V320.996C186 324.092 182.634 326.014 179.967 324.441L87.9674 270.161C86.7482 269.441 86 268.131 86 266.716V160.125C86 157.003 89.4175 155.085 92.083 156.711L184.083 212.831Z" fill="#873EFE"/>
<path d="M199.917 212.831C198.726 213.557 198 214.851 198 216.245V320.996C198 324.092 201.366 326.014 204.033 324.441L296.033 270.161C297.252 269.441 298 268.131 298 266.716V160.125C298 157.003 294.582 155.085 291.917 156.711L199.917 212.831Z" fill="#0BD18A"/>
</svg>
